<svg xmlns="http://www.w3.org/2000/svg" viewBox="0 0 512 512" role="img" aria-label="Pendientes de Obra">
  <defs>
    <linearGradient id="bg" x1="0" y1="0" x2="1" y2="1">
      <stop offset="0%" stop-color="#f3f6fb" />
      <stop offset="100%" stop-color="#e7edf6" />
    </linearGradient>
  </defs>
  <rect x="8" y="8" width="496" height="496" rx="64" fill="url(#bg)" />
  <circle cx="256" cy="256" r="210" fill="none" stroke="#123a7b" stroke-width="10" />

  <g stroke="#123a7b" stroke-width="8" fill="none">
    <rect x="142" y="228" width="34" height="130" />
    <rect x="184" y="198" width="34" height="160" />
    <rect x="227" y="240" width="34" height="118" />
    <rect x="270" y="208" width="34" height="150" />
  </g>

  <path d="M146 278 L228 350 L364 192" fill="none" stroke="#ef7d2a" stroke-width="18" stroke-linecap="round" stroke-linejoin="round" />

  <path d="M194 164 A62 62 0 0 1 318 164" fill="#123a7b" />
  <rect x="182" y="164" width="148" height="15" rx="4" fill="#123a7b" />

  <path d="M326 197 L358 226 L339 246 L309 216 Z" fill="#123a7b" />
  <rect x="291" y="212" width="42" height="10" rx="3" fill="#ffffff" />

  <text x="256" y="425" text-anchor="middle" font-family="Arial, Helvetica, sans-serif" font-size="36" font-weight="700" fill="#123a7b">PENDIENTES DE OBRA</text>
</svg>
